<?xml version="1.0" encoding="UTF-8"?>
<svg fill="none" viewBox="0 0 24 24" xmlns="http://www.w3.org/2000/svg">
  <g stroke="#545d66" stroke-linecap="round" stroke-linejoin="round" stroke-width="2">
    <path d="m14 15c0 0.5523 0.4477 1 1 1s1-0.4477 1-1-0.4477-1-1-1-1 0.4477-1 1z"/>
    <path d="m8 15c0 0.5523 0.44772 1 1 1s1-0.4477 1-1-0.44772-1-1-1-1 0.4477-1 1z"/>
    <path d="m14 9c0 0.55228 0.4477 1 1 1s1-0.44772 1-1-0.4477-1-1-1-1 0.44772-1 1z"/>
    <path d="m8 9c0 0.55228 0.44772 1 1 1s1-0.44772 1-1-0.44772-1-1-1-1 0.44772-1 1z"/>
  </g>
</svg>
